<mxfile host="Electron" modified="2024-08-06T19:56:37.679Z" agent="Mozilla/5.0 (Windows NT 10.0; Win64; x64) AppleWebKit/537.36 (KHTML, like Gecko) draw.io/24.5.3 Chrome/124.0.6367.207 Electron/30.0.6 Safari/537.36" etag="oen632MfcsVKdxCwEHGJ" version="24.5.3" type="device">
  <diagram name="Page-1" id="Gd82eqxSl7Lwj667lzlP">
    <mxGraphModel dx="2049" dy="1220" grid="1" gridSize="10" guides="1" tooltips="1" connect="1" arrows="1" fold="1" page="1" pageScale="1" pageWidth="827" pageHeight="1169" math="0" shadow="0">
      <root>
        <mxCell id="0" />
        <mxCell id="1" parent="0" />
        <mxCell id="yY5BUAiBl8MKx6A2fgRV-1" value="User" style="shape=umlLifeline;perimeter=lifelinePerimeter;whiteSpace=wrap;container=1;dropTarget=0;collapsible=0;recursiveResize=0;outlineConnect=0;portConstraint=eastwest;newEdgeStyle={&quot;edgeStyle&quot;:&quot;elbowEdgeStyle&quot;,&quot;elbow&quot;:&quot;vertical&quot;,&quot;curved&quot;:0,&quot;rounded&quot;:0};size=65;" vertex="1" parent="1">
          <mxGeometry x="20" y="20" width="150" height="1180" as="geometry" />
        </mxCell>
        <mxCell id="yY5BUAiBl8MKx6A2fgRV-2" value="LoginComponent" style="shape=umlLifeline;perimeter=lifelinePerimeter;whiteSpace=wrap;container=1;dropTarget=0;collapsible=0;recursiveResize=0;outlineConnect=0;portConstraint=eastwest;newEdgeStyle={&quot;edgeStyle&quot;:&quot;elbowEdgeStyle&quot;,&quot;elbow&quot;:&quot;vertical&quot;,&quot;curved&quot;:0,&quot;rounded&quot;:0};size=65;" vertex="1" parent="1">
          <mxGeometry x="270" y="20" width="150" height="1180" as="geometry" />
        </mxCell>
        <mxCell id="yY5BUAiBl8MKx6A2fgRV-3" value="AuthService" style="shape=umlLifeline;perimeter=lifelinePerimeter;whiteSpace=wrap;container=1;dropTarget=0;collapsible=0;recursiveResize=0;outlineConnect=0;portConstraint=eastwest;newEdgeStyle={&quot;edgeStyle&quot;:&quot;elbowEdgeStyle&quot;,&quot;elbow&quot;:&quot;vertical&quot;,&quot;curved&quot;:0,&quot;rounded&quot;:0};size=65;" vertex="1" parent="1">
          <mxGeometry x="493" y="20" width="150" height="1180" as="geometry" />
        </mxCell>
        <mxCell id="yY5BUAiBl8MKx6A2fgRV-4" value="" style="points=[];perimeter=orthogonalPerimeter;outlineConnect=0;targetShapes=umlLifeline;portConstraint=eastwest;newEdgeStyle={&quot;edgeStyle&quot;:&quot;elbowEdgeStyle&quot;,&quot;elbow&quot;:&quot;vertical&quot;,&quot;curved&quot;:0,&quot;rounded&quot;:0}" vertex="1" parent="yY5BUAiBl8MKx6A2fgRV-3">
          <mxGeometry x="70" y="159" width="10" height="156" as="geometry" />
        </mxCell>
        <mxCell id="yY5BUAiBl8MKx6A2fgRV-5" value="HTTPInterceptor" style="shape=umlLifeline;perimeter=lifelinePerimeter;whiteSpace=wrap;container=1;dropTarget=0;collapsible=0;recursiveResize=0;outlineConnect=0;portConstraint=eastwest;newEdgeStyle={&quot;edgeStyle&quot;:&quot;elbowEdgeStyle&quot;,&quot;elbow&quot;:&quot;vertical&quot;,&quot;curved&quot;:0,&quot;rounded&quot;:0};size=65;" vertex="1" parent="1">
          <mxGeometry x="693" y="20" width="150" height="1180" as="geometry" />
        </mxCell>
        <mxCell id="yY5BUAiBl8MKx6A2fgRV-6" value="API" style="shape=umlLifeline;perimeter=lifelinePerimeter;whiteSpace=wrap;container=1;dropTarget=0;collapsible=0;recursiveResize=0;outlineConnect=0;portConstraint=eastwest;newEdgeStyle={&quot;edgeStyle&quot;:&quot;elbowEdgeStyle&quot;,&quot;elbow&quot;:&quot;vertical&quot;,&quot;curved&quot;:0,&quot;rounded&quot;:0};size=65;" vertex="1" parent="1">
          <mxGeometry x="932" y="20" width="150" height="1180" as="geometry" />
        </mxCell>
        <mxCell id="yY5BUAiBl8MKx6A2fgRV-7" value="" style="points=[];perimeter=orthogonalPerimeter;outlineConnect=0;targetShapes=umlLifeline;portConstraint=eastwest;newEdgeStyle={&quot;edgeStyle&quot;:&quot;elbowEdgeStyle&quot;,&quot;elbow&quot;:&quot;vertical&quot;,&quot;curved&quot;:0,&quot;rounded&quot;:0}" vertex="1" parent="yY5BUAiBl8MKx6A2fgRV-6">
          <mxGeometry x="70" y="211" width="10" height="42" as="geometry" />
        </mxCell>
        <mxCell id="yY5BUAiBl8MKx6A2fgRV-8" value="AuthGuard" style="shape=umlLifeline;perimeter=lifelinePerimeter;whiteSpace=wrap;container=1;dropTarget=0;collapsible=0;recursiveResize=0;outlineConnect=0;portConstraint=eastwest;newEdgeStyle={&quot;edgeStyle&quot;:&quot;elbowEdgeStyle&quot;,&quot;elbow&quot;:&quot;vertical&quot;,&quot;curved&quot;:0,&quot;rounded&quot;:0};size=65;" vertex="1" parent="1">
          <mxGeometry x="1132" y="20" width="150" height="1180" as="geometry" />
        </mxCell>
        <mxCell id="yY5BUAiBl8MKx6A2fgRV-9" value="DashboardComponent" style="shape=umlLifeline;perimeter=lifelinePerimeter;whiteSpace=wrap;container=1;dropTarget=0;collapsible=0;recursiveResize=0;outlineConnect=0;portConstraint=eastwest;newEdgeStyle={&quot;edgeStyle&quot;:&quot;elbowEdgeStyle&quot;,&quot;elbow&quot;:&quot;vertical&quot;,&quot;curved&quot;:0,&quot;rounded&quot;:0};size=65;" vertex="1" parent="1">
          <mxGeometry x="1332" y="20" width="181" height="1180" as="geometry" />
        </mxCell>
        <mxCell id="yY5BUAiBl8MKx6A2fgRV-10" value="alt" style="shape=umlFrame;dashed=1;pointerEvents=0;dropTarget=0;strokeColor=#B3B3B3;height=20;width=30" vertex="1" parent="1">
          <mxGeometry x="757" y="459" width="261" height="171" as="geometry" />
        </mxCell>
        <mxCell id="yY5BUAiBl8MKx6A2fgRV-11" value="[Token présent dans&#xa;localStorage]" style="text;strokeColor=none;fillColor=none;align=center;verticalAlign=middle;whiteSpace=wrap;" vertex="1" parent="yY5BUAiBl8MKx6A2fgRV-10">
          <mxGeometry x="30" width="231" height="20" as="geometry" />
        </mxCell>
        <mxCell id="yY5BUAiBl8MKx6A2fgRV-12" value="alt" style="shape=umlFrame;dashed=1;pointerEvents=0;dropTarget=0;strokeColor=#B3B3B3;height=20;width=30" vertex="1" parent="1">
          <mxGeometry x="330" y="744" width="1104" height="175" as="geometry" />
        </mxCell>
        <mxCell id="yY5BUAiBl8MKx6A2fgRV-13" value="[AuthGuard: Utilisateur authentifié]" style="text;strokeColor=none;fillColor=none;align=center;verticalAlign=middle;whiteSpace=wrap;" vertex="1" parent="yY5BUAiBl8MKx6A2fgRV-12">
          <mxGeometry x="30" width="1074" height="20" as="geometry" />
        </mxCell>
        <mxCell id="yY5BUAiBl8MKx6A2fgRV-14" value="" style="shape=line;dashed=1;whiteSpace=wrap;verticalAlign=top;labelPosition=center;verticalLabelPosition=middle;align=center;strokeColor=#B3B3B3;" vertex="1" parent="yY5BUAiBl8MKx6A2fgRV-12">
          <mxGeometry y="103" width="1104" as="geometry" />
        </mxCell>
        <mxCell id="yY5BUAiBl8MKx6A2fgRV-15" value="Fournit Email &amp; Password" style="verticalAlign=bottom;endArrow=block;edgeStyle=elbowEdgeStyle;elbow=vertical;curved=0;rounded=0;" edge="1" parent="1" source="yY5BUAiBl8MKx6A2fgRV-1" target="yY5BUAiBl8MKx6A2fgRV-2">
          <mxGeometry relative="1" as="geometry">
            <Array as="points">
              <mxPoint x="227" y="127" />
            </Array>
          </mxGeometry>
        </mxCell>
        <mxCell id="yY5BUAiBl8MKx6A2fgRV-16" value="login(credentials)" style="verticalAlign=bottom;endArrow=block;edgeStyle=elbowEdgeStyle;elbow=vertical;curved=0;rounded=0;" edge="1" parent="1" source="yY5BUAiBl8MKx6A2fgRV-2" target="yY5BUAiBl8MKx6A2fgRV-4">
          <mxGeometry relative="1" as="geometry">
            <Array as="points">
              <mxPoint x="465" y="179" />
            </Array>
          </mxGeometry>
        </mxCell>
        <mxCell id="yY5BUAiBl8MKx6A2fgRV-17" value="POST /login_check" style="verticalAlign=bottom;endArrow=block;edgeStyle=elbowEdgeStyle;elbow=vertical;curved=0;rounded=0;" edge="1" parent="1" source="yY5BUAiBl8MKx6A2fgRV-4" target="yY5BUAiBl8MKx6A2fgRV-7">
          <mxGeometry relative="1" as="geometry">
            <Array as="points">
              <mxPoint x="796" y="231" />
            </Array>
          </mxGeometry>
        </mxCell>
        <mxCell id="yY5BUAiBl8MKx6A2fgRV-18" value="JWT Token" style="verticalAlign=bottom;endArrow=block;edgeStyle=elbowEdgeStyle;elbow=vertical;curved=0;rounded=0;dashed=1;dashPattern=2 3;" edge="1" parent="1" source="yY5BUAiBl8MKx6A2fgRV-6" target="yY5BUAiBl8MKx6A2fgRV-4">
          <mxGeometry relative="1" as="geometry">
            <Array as="points">
              <mxPoint x="799" y="283" />
            </Array>
          </mxGeometry>
        </mxCell>
        <mxCell id="yY5BUAiBl8MKx6A2fgRV-19" value="JWT Token" style="verticalAlign=bottom;endArrow=block;edgeStyle=elbowEdgeStyle;elbow=vertical;curved=0;rounded=0;dashed=1;dashPattern=2 3;" edge="1" parent="1" source="yY5BUAiBl8MKx6A2fgRV-4" target="yY5BUAiBl8MKx6A2fgRV-2">
          <mxGeometry relative="1" as="geometry">
            <Array as="points">
              <mxPoint x="468" y="335" />
            </Array>
          </mxGeometry>
        </mxCell>
        <mxCell id="yY5BUAiBl8MKx6A2fgRV-20" value="saveToken(token)" style="verticalAlign=bottom;endArrow=block;edgeStyle=elbowEdgeStyle;elbow=vertical;curved=0;rounded=0;" edge="1" parent="1" source="yY5BUAiBl8MKx6A2fgRV-2" target="yY5BUAiBl8MKx6A2fgRV-3">
          <mxGeometry relative="1" as="geometry">
            <Array as="points">
              <mxPoint x="467" y="387" />
            </Array>
          </mxGeometry>
        </mxCell>
        <mxCell id="yY5BUAiBl8MKx6A2fgRV-21" value="Redirection" style="verticalAlign=bottom;endArrow=block;edgeStyle=elbowEdgeStyle;elbow=vertical;curved=0;rounded=0;" edge="1" parent="1" source="yY5BUAiBl8MKx6A2fgRV-2" target="yY5BUAiBl8MKx6A2fgRV-9">
          <mxGeometry relative="1" as="geometry">
            <Array as="points">
              <mxPoint x="894" y="439" />
            </Array>
          </mxGeometry>
        </mxCell>
        <mxCell id="yY5BUAiBl8MKx6A2fgRV-22" value="Ajoute JWT à la requête" style="verticalAlign=bottom;endArrow=block;edgeStyle=elbowEdgeStyle;elbow=vertical;curved=0;rounded=0;" edge="1" parent="1" source="yY5BUAiBl8MKx6A2fgRV-5" target="yY5BUAiBl8MKx6A2fgRV-6">
          <mxGeometry relative="1" as="geometry">
            <Array as="points">
              <mxPoint x="896" y="558" />
            </Array>
          </mxGeometry>
        </mxCell>
        <mxCell id="yY5BUAiBl8MKx6A2fgRV-23" value="Réponse de l&#39;API" style="verticalAlign=bottom;endArrow=block;edgeStyle=elbowEdgeStyle;elbow=vertical;curved=0;rounded=0;dashed=1;dashPattern=2 3;" edge="1" parent="1" source="yY5BUAiBl8MKx6A2fgRV-6" target="yY5BUAiBl8MKx6A2fgRV-5">
          <mxGeometry relative="1" as="geometry">
            <Array as="points">
              <mxPoint x="899" y="610" />
            </Array>
          </mxGeometry>
        </mxCell>
        <mxCell id="yY5BUAiBl8MKx6A2fgRV-24" value="isLogged()" style="verticalAlign=bottom;endArrow=block;edgeStyle=elbowEdgeStyle;elbow=vertical;curved=0;rounded=0;" edge="1" parent="1" source="yY5BUAiBl8MKx6A2fgRV-8" target="yY5BUAiBl8MKx6A2fgRV-3">
          <mxGeometry relative="1" as="geometry">
            <Array as="points">
              <mxPoint x="899" y="672" />
            </Array>
          </mxGeometry>
        </mxCell>
        <mxCell id="yY5BUAiBl8MKx6A2fgRV-25" value="true/false" style="verticalAlign=bottom;endArrow=block;edgeStyle=elbowEdgeStyle;elbow=vertical;curved=0;rounded=0;dashed=1;dashPattern=2 3;" edge="1" parent="1" source="yY5BUAiBl8MKx6A2fgRV-3" target="yY5BUAiBl8MKx6A2fgRV-8">
          <mxGeometry relative="1" as="geometry">
            <Array as="points">
              <mxPoint x="896" y="724" />
            </Array>
          </mxGeometry>
        </mxCell>
        <mxCell id="yY5BUAiBl8MKx6A2fgRV-26" value="Accès autorisé" style="verticalAlign=bottom;endArrow=block;edgeStyle=elbowEdgeStyle;elbow=vertical;curved=0;rounded=0;" edge="1" parent="1" source="yY5BUAiBl8MKx6A2fgRV-8" target="yY5BUAiBl8MKx6A2fgRV-9">
          <mxGeometry relative="1" as="geometry">
            <Array as="points">
              <mxPoint x="1323" y="822" />
            </Array>
          </mxGeometry>
        </mxCell>
        <mxCell id="yY5BUAiBl8MKx6A2fgRV-27" value="Redirection vers login" style="verticalAlign=bottom;endArrow=block;edgeStyle=elbowEdgeStyle;elbow=vertical;curved=0;rounded=0;" edge="1" parent="1" source="yY5BUAiBl8MKx6A2fgRV-8" target="yY5BUAiBl8MKx6A2fgRV-2">
          <mxGeometry relative="1" as="geometry">
            <Array as="points">
              <mxPoint x="790" y="899" />
            </Array>
          </mxGeometry>
        </mxCell>
        <mxCell id="yY5BUAiBl8MKx6A2fgRV-28" value="Déconnexion" style="verticalAlign=bottom;endArrow=block;edgeStyle=elbowEdgeStyle;elbow=vertical;curved=0;rounded=0;" edge="1" parent="1" source="yY5BUAiBl8MKx6A2fgRV-1" target="yY5BUAiBl8MKx6A2fgRV-3">
          <mxGeometry relative="1" as="geometry">
            <Array as="points">
              <mxPoint x="340" y="961" />
            </Array>
          </mxGeometry>
        </mxCell>
        <mxCell id="yY5BUAiBl8MKx6A2fgRV-29" value="Supprime le token" style="curved=1;rounded=0;" edge="1" parent="1" source="yY5BUAiBl8MKx6A2fgRV-3" target="yY5BUAiBl8MKx6A2fgRV-3">
          <mxGeometry relative="1" as="geometry">
            <Array as="points">
              <mxPoint x="619" y="1013" />
              <mxPoint x="619" y="1043" />
            </Array>
          </mxGeometry>
        </mxCell>
        <mxCell id="yY5BUAiBl8MKx6A2fgRV-30" value="Redirection vers login" style="verticalAlign=bottom;endArrow=block;edgeStyle=elbowEdgeStyle;elbow=vertical;curved=0;rounded=0;" edge="1" parent="1" source="yY5BUAiBl8MKx6A2fgRV-3" target="yY5BUAiBl8MKx6A2fgRV-2">
          <mxGeometry relative="1" as="geometry">
            <Array as="points">
              <mxPoint x="470" y="1095" />
            </Array>
          </mxGeometry>
        </mxCell>
      </root>
    </mxGraphModel>
  </diagram>
</mxfile>
